<?xml version="1.0" encoding="UTF-8"?>
<svg id="Layer_2" data-name="Layer 2" xmlns="http://www.w3.org/2000/svg" xmlns:xlink="http://www.w3.org/1999/xlink" viewBox="0 0 66.52 66.51">
  <defs>
    <style>
      .cls-1 {
        fill: #282828;
      }

      .cls-2 {
        clip-path: url(#clippath);
      }

      .cls-3 {
        fill: none;
      }
    </style>
    <clipPath id="clippath">
      <rect class="cls-3" width="66.52" height="66.51"/>
    </clipPath>
  </defs>
  <g id="Layer_1-2" data-name="Layer 1">
    <g id="Group_23" data-name="Group 23">
      <g class="cls-2">
        <g id="Group_22" data-name="Group 22">
          <path id="Path_7" data-name="Path 7" class="cls-1" d="m33.26,66.5c-7.82,0-15.63.04-23.46-.02-3.58.2-6.94-1.71-8.61-4.88-.75-1.46-1.13-3.09-1.11-4.73-.05-8.91-.08-17.82-.08-26.74-.18-1.78,1.12-3.37,2.9-3.55.47-.05.95,0,1.4.17,1.26.28,2.19,1.34,2.3,2.63.04.47.06.93.05,1.4.03,8.6.04,17.2.1,25.8,0,.64.16,1.27.44,1.85.49.92,1.48,1.46,2.52,1.38,1.12.02,2.23.08,3.35.08h39.98c1.25,0,2.49-.03,3.74-.09,1.54.1,2.87-1.06,2.97-2.6,0-.13,0-.26,0-.39.06-1.58.09-3.17.09-4.75v-21.36c0-.49.02-.99.08-1.48.26-1.56,1.63-2.68,3.21-2.61,1.6-.1,3.02,1.01,3.31,2.59.05.33.08.66.08,1-.02,8.86,0,17.72-.09,26.58.18,3.52-1.67,6.84-4.77,8.52-1.55.81-3.28,1.22-5.03,1.17-7.79.03-15.58,0-23.38,0"/>
          <path id="Path_8" data-name="Path 8" class="cls-1" d="m29.68,11.48c-.58.63-1.14,1.27-1.74,1.87-1.86,1.88-3.74,3.76-5.62,5.62-.83.95-2.16,1.29-3.35.86-1.23-.38-2.13-1.43-2.31-2.7-.17-1.1.25-2.21,1.09-2.94l5.34-5.34c2.55-2.55,5.1-5.1,7.65-7.65,1.11-1.38,3.13-1.61,4.52-.5.17.14.33.3.47.47,4.34,4.31,8.68,8.64,13.01,12.99,1.01.84,1.41,2.21,1,3.46-.37,1.23-1.41,2.13-2.68,2.33-1.1.18-2.22-.22-2.94-1.07-2.26-2.26-4.52-4.52-6.77-6.78-.17-.23-.3-.49-.39-.75l-.36.26v30.99c.02.57-.02,1.14-.14,1.7-.41,1.55-1.94,2.54-3.52,2.28-1.55-.03-2.83-1.22-2.95-2.77-.04-.44-.06-.89-.06-1.33V11.64l-.24-.17"/>
        </g>
      </g>
    </g>
  </g>
</svg>