<?xml version="1.0" encoding="UTF-8"?>
<svg id="Layer_2" data-name="Layer 2" xmlns="http://www.w3.org/2000/svg" xmlns:xlink="http://www.w3.org/1999/xlink" viewBox="0 0 60.58 78.61">
  <defs>
    <style>
      .cls-1 {
        fill: #a3a3a3;
      }

      .cls-2 {
        clip-path: url(#clippath);
      }

      .cls-3 {
        fill: none;
      }
    </style>
    <clipPath id="clippath">
      <rect class="cls-3" width="60.58" height="78.61"/>
    </clipPath>
  </defs>
  <g id="Layer_1-2" data-name="Layer 1">
    <g id="Group_3" data-name="Group 3">
      <g class="cls-2">
        <g id="Group_2" data-name="Group 2">
          <path id="Path_1" data-name="Path 1" class="cls-1" d="m4.17,17.78h52.21c.04.97.11,1.82.11,2.67,0,16.03-.16,32.07.08,48.1.48,5.08-3.25,9.59-8.33,10.07-.59.06-1.19.05-1.78,0-11.01-.27-22.06-.05-33.09-.04-4.75.3-8.85-3.3-9.16-8.06-.01-.18-.02-.36-.02-.54-.09-17.3-.04-34.59-.04-52.2"/>
          <path id="Path_2" data-name="Path 2" class="cls-1" d="m0,12.63V4.32h3.42c2.86,0,5.73-.13,8.57.04,2.06.34,4.14-.53,5.34-2.24,1.13-1.56,3.02-2.37,4.93-2.12,5.55.15,11.12.12,16.66,0,1.67-.21,3.32.49,4.32,1.84,1.35,1.9,3.65,2.88,5.95,2.55,3.71-.23,7.44-.06,11.4-.06v8.29H0Z"/>
        </g>
      </g>
    </g>
  </g>
</svg>