<?xml version="1.0" encoding="UTF-8"?>
<svg id="Layer_2" data-name="Layer 2" xmlns="http://www.w3.org/2000/svg" xmlns:xlink="http://www.w3.org/1999/xlink" viewBox="0 0 66.51 66.51">
  <defs>
    <style>
      .cls-1 {
        fill: #282828;
      }

      .cls-2 {
        clip-path: url(#clippath);
      }

      .cls-3 {
        fill: none;
      }
    </style>
    <clipPath id="clippath">
      <rect class="cls-3" width="66.51" height="66.51"/>
    </clipPath>
  </defs>
  <g id="Layer_1-2" data-name="Layer 1">
    <g id="Group_19" data-name="Group 19">
      <g class="cls-2">
        <g id="Group_18" data-name="Group 18">
          <path id="Path_4" data-name="Path 4" class="cls-1" d="m33.29,66.51H6.04c-3.14.2-5.84-2.19-6.04-5.33-.01-.21-.01-.41,0-.62V6.07c-.07-1.47.4-2.91,1.33-4.04C2.5.66,4.24-.09,6.04,0h39.36c3.33,0,2.77-.2,5.1,2.13,4.9,4.89,9.77,9.81,14.7,14.67.85.82,1.32,1.96,1.29,3.14.02,13.61.02,27.21.02,40.81.11,3.08-2.29,5.67-5.37,5.78-.21,0-.41,0-.62-.01h-27.24m-19.43-5.55v-19.17c-.14-3.04,2.22-5.62,5.26-5.75.17,0,.33,0,.5,0,9.1-.01,18.2-.01,27.3,0,.56,0,1.12.07,1.66.21,2.49.72,4.17,3.04,4.08,5.63-.05,6.11,0,12.23,0,18.34v.72h8.31c.01-.07.02-.15.03-.22V21.13c-.02-.23-.11-.45-.28-.62-4.4-4.4-8.81-8.8-13.21-13.2-.1-.1-.23-.19-.43-.33v14.74c.02.52-.02,1.05-.11,1.56-.53,2.68-2.92,4.59-5.65,4.5-5.37.01-10.74.01-16.1,0-.5,0-1.01-.06-1.5-.17-2.61-.63-4.42-3.01-4.32-5.69.05-5.18,0-10.37,0-15.56v-.72H5.65v55.31h8.21Zm5.62-.1h27.56v-19.23h-27.56v19.23ZM41.57,5.65h-16.53v16.5h16.53V5.65Z"/>
        </g>
      </g>
    </g>
  </g>
</svg>