<?xml version="1.0" encoding="UTF-8"?>
<svg id="Layer_2" data-name="Layer 2" xmlns="http://www.w3.org/2000/svg" xmlns:xlink="http://www.w3.org/1999/xlink" viewBox="0 0 72.27 66.51">
  <defs>
    <style>
      .cls-1 {
        fill: #282828;
      }

      .cls-2 {
        clip-path: url(#clippath);
      }

      .cls-3 {
        fill: none;
      }
    </style>
    <clipPath id="clippath">
      <rect class="cls-3" width="72.27" height="66.51"/>
    </clipPath>
  </defs>
  <g id="Layer_1-2" data-name="Layer 1">
    <g id="Group_21" data-name="Group 21">
      <g class="cls-2">
        <g id="Group_20" data-name="Group 20">
          <path id="Path_5" data-name="Path 5" class="cls-1" d="m9.86,66.51v-14.52c-.59-.07-1.14-.1-1.66-.21C3.45,50.99-.01,46.84.05,42.02-.02,31.09-.01,20.16.08,9.23.37,4.51,3.99.68,8.68.12c.8-.07,1.6-.12,2.4-.12h50.71c4.08-.21,7.88,2.1,9.55,5.83.62,1.29.94,2.71.92,4.14,0,10.64.03,21.31,0,31.97.02,5.51-4.43,10-9.94,10.02-.14,0-.28,0-.42,0-10.08,0-20.16,0-30.24.03-.56.01-1.11.19-1.57.5-6.48,4.47-12.94,8.96-19.39,13.47-.22.15-.45.3-.83.56m4.32-8.2c.37-.25.6-.39.82-.55,4.63-3.22,9.25-6.45,13.89-9.64.41-.27.88-.42,1.37-.43,10.48-.02,20.96-.03,31.44-.02.56.02,1.11-.02,1.66-.1,2.82-.54,4.81-3.08,4.66-5.95-.03-10.43,0-20.86-.02-31.29.01-.55-.04-1.1-.16-1.64-.59-2.68-3.04-4.55-5.78-4.39H10.32c-3.11-.22-5.82,2.12-6.04,5.24-.01.19-.02.37-.01.56-.02,10.6-.02,21.21,0,31.81-.06,3.12,2.42,5.7,5.54,5.76.07,0,.15,0,.22,0,1.15.02,2.31,0,3.46,0,.21,0,.43.04.69.06v10.59Z"/>
          <rect id="Rectangle_41" data-name="Rectangle 41" class="cls-1" x="19.36" y="15.05" width="33.51" height="4.11"/>
          <rect id="Rectangle_42" data-name="Rectangle 42" class="cls-1" x="19.38" y="24.05" width="33.48" height="4.15"/>
          <rect id="Rectangle_43" data-name="Rectangle 43" class="cls-1" x="19.34" y="33.11" width="33.53" height="4.1"/>
        </g>
      </g>
    </g>
  </g>
</svg>