<?xml version="1.0" encoding="UTF-8"?>
<svg id="Layer_2" data-name="Layer 2" xmlns="http://www.w3.org/2000/svg" xmlns:xlink="http://www.w3.org/1999/xlink" viewBox="0 0 54.35 78.61">
  <defs>
    <style>
      .cls-1 {
        fill: #a3a3a3;
      }

      .cls-2 {
        clip-path: url(#clippath);
      }

      .cls-3 {
        fill: none;
      }
    </style>
    <clipPath id="clippath">
      <rect class="cls-3" width="54.35" height="78.61"/>
    </clipPath>
  </defs>
  <g id="Layer_1-2" data-name="Layer 1">
    <g id="Group_69" data-name="Group 69">
      <g class="cls-2">
        <g id="Group_68" data-name="Group 68">
          <path id="Path_28" data-name="Path 28" class="cls-1" d="m22.98,78.63c-2.15-.4-4.12-1.48-5.59-3.1-1.45-1.65-2.24-3.77-2.24-5.97v-2.94h23.98c1.39,5.09-1.62,10.35-6.71,11.73-.1.03-.2.05-.31.08-.22.06-.44.13-.66.2h-8.46Z"/>
          <path id="Path_29" data-name="Path 29" class="cls-1" d="m27.18,60.51h-11.76c-1.64.18-3.11-1-3.29-2.64-.02-.22-.02-.44,0-.66.06-4.26-1.59-8.38-4.58-11.42C-2.81,34.99-2.44,17.84,8.36,7.49c.29-.27.58-.54.88-.8C15.25,1.29,23.41-1.05,31.38.35c7.66,1.03,14.47,5.41,18.58,11.96,3.7,5.56,5.16,12.3,4.08,18.89-.84,5.71-3.48,11-7.55,15.1-2.75,2.9-4.26,6.76-4.2,10.76-.05,2.38-1.12,3.45-3.54,3.45h-11.57m-.93-48.44c-5.58.24-10.54,3.64-12.78,8.76-.5,1.01-.8,2.12-.87,3.25.04,1.44,1.16,2.62,2.6,2.72,1.46.21,2.84-.71,3.2-2.14,1.07-3.95,4.69-6.66,8.79-6.58,1.69-.02,3.05-1.41,3.03-3.1,0,0,0,0,0,0-.07-1.73-1.51-2.96-3.97-2.89"/>
        </g>
      </g>
    </g>
  </g>
</svg>