<?xml version="1.0" encoding="UTF-8"?>
<svg id="Layer_2" data-name="Layer 2" xmlns="http://www.w3.org/2000/svg" xmlns:xlink="http://www.w3.org/1999/xlink" viewBox="0 0 35.69 78.61">
  <defs>
    <style>
      .cls-1 {
        fill: #a3a3a3;
      }

      .cls-2 {
        clip-path: url(#clippath);
      }

      .cls-3 {
        fill: none;
      }
    </style>
    <clipPath id="clippath">
      <rect class="cls-3" width="35.69" height="78.61"/>
    </clipPath>
  </defs>
  <g id="Layer_1-2" data-name="Layer 1">
    <g id="Group_5" data-name="Group 5">
      <g class="cls-2">
        <g id="Group_4" data-name="Group 4">
          <path id="Path_3" data-name="Path 3" class="cls-1" d="m14.37,65.3V5.33c-.04-.71-.03-1.43.03-2.14.06-1.8,1.55-3.21,3.35-3.18,1.77-.28,3.42.93,3.7,2.7.02.1.03.21.03.32.11,1.15.14,2.32.09,3.47v58.86l.73.39c2.33-2.66,4.79-5.19,7.38-7.59,1.26-.84,2.85-1.04,4.28-.53.97.46,1.45,2.36,1.7,3.73.12.63-.68,1.57-1.28,2.19-4.45,4.52-8.93,9-13.43,13.46-1.11,1.67-3.36,2.12-5.03,1.01-.38-.25-.71-.58-.98-.96-4.5-4.46-8.98-8.95-13.42-13.46-1.97-2.02-2.01-3.95-.28-5.61,1.42-1.4,3.7-1.38,5.09.04.12.12.23.25.33.39,2.4,2.36,4.69,4.85,7.03,7.28l.66-.39"/>
        </g>
      </g>
    </g>
  </g>
</svg>