<svg xmlns="http://www.w3.org/2000/svg" xmlns:xlink="http://www.w3.org/1999/xlink" width="2.957" height="18.3" viewBox="0 0 2.957 18.3">
  <defs>
    <clipPath id="clip-path">
      <rect id="Rectangle_145" data-name="Rectangle 145" width="2.957" height="18.3" fill="#5b5b5b"/>
    </clipPath>
  </defs>
  <g id="Group_163" data-name="Group 163" transform="translate(2.957 18.3) rotate(180)">
    <g id="Group_145" data-name="Group 145" clip-path="url(#clip-path)">
      <path id="Path_35" data-name="Path 35" d="M2.949,1.5a1.227,1.227,0,0,1-.183.8A1.27,1.27,0,0,1,2.04,2.9a1.744,1.744,0,0,1-.841.077,1.486,1.486,0,0,1-.928-.559,2.068,2.068,0,0,1-.179-.387A.985.985,0,0,1,0,1.513q.016-.194.042-.388a1.2,1.2,0,0,1,.26-.6,1.3,1.3,0,0,1,.82-.5,2.284,2.284,0,0,1,.838.026A1.368,1.368,0,0,1,2.95,1.321c-.005.06,0,.12,0,.18" transform="translate(0 0)" fill="#5b5b5b"/>
      <path id="Path_36" data-name="Path 36" d="M3.02,181.474a1.338,1.338,0,0,1-.447,1.109,1.474,1.474,0,0,1-.9.375,1.467,1.467,0,0,1-.845-.181,1.237,1.237,0,0,1-.679-.845,2.661,2.661,0,0,1-.072-.521,1.447,1.447,0,0,1,.242-.839,1.289,1.289,0,0,1,.947-.6,1.547,1.547,0,0,1,1.163.224,1.3,1.3,0,0,1,.588,1.186c0,.032,0,.064,0,.1" transform="translate(-0.073 -164.666)" fill="#5b5b5b"/>
      <path id="Path_37" data-name="Path 37" d="M1.59,92.819a1.287,1.287,0,0,1-1-.318.894.894,0,0,1-.137-.144,1.385,1.385,0,0,1-.322-.86c0-.064,0-.127,0-.191a1.344,1.344,0,0,1,.813-1.319,1.639,1.639,0,0,1,1.12-.074,1.2,1.2,0,0,1,.565.31,1.219,1.219,0,0,1,.427.791,3.1,3.1,0,0,1-.018.751,1.345,1.345,0,0,1-.649.9,1.326,1.326,0,0,1-.8.155" transform="translate(-0.122 -82.221)" fill="#5b5b5b"/>
    </g>
  </g>
</svg>
