<svg xmlns="http://www.w3.org/2000/svg" xmlns:xlink="http://www.w3.org/1999/xlink" width="15" height="15" viewBox="0 0 15 15">
  <defs>
    <clipPath id="clip-path">
      <rect id="Rectangle_139" data-name="Rectangle 139" width="15" height="15" transform="translate(0 0)"/>
    </clipPath>
  </defs>
  <g id="Group_166" data-name="Group 166" transform="translate(0 -0.46)">
    <g id="Group_135" data-name="Group 135" transform="translate(0 0.46)" clip-path="url(#clip-path)">
      <path id="Path_32" data-name="Path 32" d="M100.006,5.2q0,1.6,0,3.2a1.867,1.867,0,0,1-1.322,1.871,2.484,2.484,0,0,1-.772.116q-3.1.014-6.2,0a1.906,1.906,0,0,1-2-1.438,3.243,3.243,0,0,1-.085-.805c-.007-1.969-.013-3.938,0-5.907a3.058,3.058,0,0,1,.188-1.1A1.756,1.756,0,0,1,91.535.016C93.714-.008,95.893,0,98.072.01a1.913,1.913,0,0,1,1.933,1.959q0,1.615,0,3.229M94.835.936c-1.112,0-2.223,0-3.335,0a.876.876,0,0,0-.948.926q-.005,3.335,0,6.669a.887.887,0,0,0,.923.929q3.335.007,6.669,0A.9.9,0,0,0,99.1,8.5q.006-3.308,0-6.617a.891.891,0,0,0-.955-.949q-1.654,0-3.308,0" transform="translate(-84.913 -0.09)"/>
      <path id="Path_33" data-name="Path 33" d="M5.155,100.479h-3.2A1.858,1.858,0,0,1,0,98.556q-.009-3.244,0-6.487A1.854,1.854,0,0,1,1.768,90.15c.5-.037,1-.024,1.5-.014a.421.421,0,0,1,.463.457.433.433,0,0,1-.474.45c-.473.01-.946,0-1.418.005a.909.909,0,0,0-.929.929q0,3.336,0,6.671a.887.887,0,0,0,.92.927q3.349,0,6.7,0a.868.868,0,0,0,.919-.872c.018-.472,0-.945.01-1.418.008-.387.226-.587.56-.5.115.031.279.152.291.248a4.6,4.6,0,0,1-.113,2.3,1.733,1.733,0,0,1-1.726,1.137c-1.1.006-2.206,0-3.309,0" transform="translate(0.001 -85.48)"/>
    </g>
  </g>
</svg>
