<svg id="Group_164" data-name="Group 164" xmlns="http://www.w3.org/2000/svg" xmlns:xlink="http://www.w3.org/1999/xlink" width="31.251" height="25" viewBox="0 0 31.251 25">
  <defs>
    <clipPath id="clip-path">
      <rect id="Rectangle_147" data-name="Rectangle 147" width="31.251" height="25"/>
    </clipPath>
  </defs>
  <g id="Group_147" data-name="Group 147" clip-path="url(#clip-path)">
    <path id="Path_38" data-name="Path 38" d="M135.728.98c-.139.426-.324,1-.515,1.579q-2.547,7.661-5.1,15.321-1.083,3.253-2.172,6.5a.777.777,0,0,1-1.019.566.789.789,0,0,1-.381-1.029q1.538-4.641,3.084-9.278,1.743-5.237,3.488-10.473c.4-1.209.8-2.42,1.219-3.625a.679.679,0,0,1,.781-.535c.414.067.636.372.611.969" transform="translate(-115.464 0)"/>
    <path id="Path_39" data-name="Path 39" d="M259.936,76.261a3.951,3.951,0,0,1,.471-.658q2.96-2.661,5.943-5.3c.288-.254.308-.412,0-.676-1.9-1.64-3.781-3.3-5.668-4.95a5.156,5.156,0,0,1-.414-.385.782.782,0,0,1-.047-1.064.769.769,0,0,1,1.061-.041c.707.6,1.4,1.217,2.094,1.833,1.56,1.387,3.1,2.8,4.683,4.158a.935.935,0,0,1,.021,1.605c-2.224,1.927-4.395,3.915-6.584,5.882-.457.411-.78.512-1.112.247a2.916,2.916,0,0,1-.453-.655" transform="translate(-237.278 -57.506)"/>
    <path id="Path_40" data-name="Path 40" d="M1.869,70.042l4.5,3.986c.619.548,1.243,1.09,1.854,1.647a.731.731,0,0,1,.1,1.139c-.326.361-.67.378-1.1-.005-1.576-1.394-3.141-2.8-4.71-4.2-.7-.628-1.409-1.254-2.108-1.887-.55-.5-.544-.924.012-1.417q3.37-2.99,6.743-5.976a.774.774,0,1,1,1,1.142q-2.884,2.553-5.771,5.1c-.161.143-.322.286-.529.471" transform="translate(0 -57.538)"/>
  </g>
</svg>
