<svg id="Group_154" data-name="Group 154" xmlns="http://www.w3.org/2000/svg" xmlns:xlink="http://www.w3.org/1999/xlink" width="27.163" height="25" viewBox="0 0 27.163 25">
  <defs>
    <clipPath id="clip-path">
      <rect id="Rectangle_44" data-name="Rectangle 44" width="27.163" height="25" fill="#020202"/>
    </clipPath>
  </defs>
  <g id="Group_20" data-name="Group 20" clip-path="url(#clip-path)">
    <path id="Path_5" data-name="Path 5" d="M3.707,25V19.543c-.223-.027-.429-.039-.63-.078A3.67,3.67,0,0,1,.015,15.8Q-.023,9.632.028,3.468A3.676,3.676,0,0,1,3.261.045c.3-.028.6-.043.9-.043q9.529,0,19.058,0a3.727,3.727,0,0,1,3.591,2.193,3.475,3.475,0,0,1,.345,1.558c0,4.006.01,8.012,0,12.018a3.747,3.747,0,0,1-3.893,3.762c-3.789.006-7.578,0-11.367.01a1.111,1.111,0,0,0-.592.187q-3.651,2.52-7.286,5.061c-.083.058-.168.113-.311.21m1.621-3.081c.138-.092.224-.147.308-.205,1.739-1.21,3.476-2.423,5.221-3.624a.965.965,0,0,1,.514-.163q5.908-.014,11.816-.009a3.505,3.505,0,0,0,.619-.038,2.157,2.157,0,0,0,1.752-2.238c-.012-3.92,0-7.84-.007-11.759a2.521,2.521,0,0,0-.06-.616,2.105,2.105,0,0,0-2.172-1.651q-3.548-.006-7.1,0-6.177,0-12.353,0A2.128,2.128,0,0,0,1.6,3.795q-.012,5.979,0,11.957A2.122,2.122,0,0,0,3.77,17.919c.433.006.867,0,1.3,0,.08,0,.161.013.258.022Z" transform="translate(0 0)" fill="#020202"/>
    <rect id="Rectangle_41" data-name="Rectangle 41" width="12.594" height="1.544" transform="translate(7.278 5.658)" fill="#020202"/>
    <rect id="Rectangle_42" data-name="Rectangle 42" width="12.583" height="1.561" transform="translate(7.283 9.038)" fill="#020202"/>
    <rect id="Rectangle_43" data-name="Rectangle 43" width="12.601" height="1.54" transform="translate(7.269 12.445)" fill="#020202"/>
  </g>
</svg>
