<svg xmlns="http://www.w3.org/2000/svg" width="19.125" height="25.5" viewBox="0 0 19.125 25.5">
  <g id="file-earmark-arrow-up" transform="translate(-2)" opacity="0.63">
    <path id="Path_60" data-name="Path 60" d="M10.282,14.766a.8.8,0,0,1-1.594,0V8.721L6.861,10.549A.8.8,0,0,1,5.733,9.421L8.921,6.233a.8.8,0,0,1,1.128,0l3.188,3.187a.8.8,0,0,1-1.128,1.128L10.282,8.721Z" transform="translate(2.078 3.562)"/>
    <path id="Path_61" data-name="Path 61" d="M21.125,22.313V7.172L13.953,0H5.188A3.188,3.188,0,0,0,2,3.188V22.313A3.187,3.187,0,0,0,5.188,25.5h12.75A3.188,3.188,0,0,0,21.125,22.313ZM13.953,4.781a2.391,2.391,0,0,0,2.391,2.391h3.188V22.313a1.594,1.594,0,0,1-1.594,1.594H5.188a1.594,1.594,0,0,1-1.594-1.594V3.188A1.594,1.594,0,0,1,5.188,1.594h8.766Z" transform="translate(0)"/>
  </g>
</svg>
