<svg id="Group_160" data-name="Group 160" xmlns="http://www.w3.org/2000/svg" xmlns:xlink="http://www.w3.org/1999/xlink" width="21.838" height="25" viewBox="0 0 21.838 25">
  <defs>
    <clipPath id="clip-path">
      <rect id="Rectangle_137" data-name="Rectangle 137" width="21.838" height="25"/>
    </clipPath>
  </defs>
  <g id="Group_131" data-name="Group 131" clip-path="url(#clip-path)">
    <path id="Path_30" data-name="Path 30" d="M10.146,13.268c-.97,0-1.9.032-2.818-.012a7.181,7.181,0,0,1-1.686-.269A3.675,3.675,0,0,1,3.168,9.873c-.046-.62-.058-1.243-.064-1.864,0-.224-.043-.344-.288-.412A3.879,3.879,0,0,1,.608,1.741,3.959,3.959,0,0,1,4.8.117a3.712,3.712,0,0,1,2.952,3.59A3.682,3.682,0,0,1,5.162,7.52c-.4.13-.588.286-.534.727.052.421,0,.856.059,1.276a2.314,2.314,0,0,0,2.461,2.2q3.774.033,7.548,0A2.4,2.4,0,0,0,17.2,9.2c.012-.4-.013-.807.007-1.209.012-.248-.1-.334-.317-.394A3.893,3.893,0,0,1,15.148,1.16a4.152,4.152,0,0,1,4.474-.8,3.941,3.941,0,0,1,1.4,5.956,3.439,3.439,0,0,1-1.887,1.25.481.481,0,0,0-.421.547,13.181,13.181,0,0,1-.184,2.359A3.57,3.57,0,0,1,15.29,13.2c-1.035.061-2.074.045-3.111.063-.145,0-.289,0-.455,0a2.95,2.95,0,0,0-.035.31c0,1.136,0,2.272-.007,3.408a.354.354,0,0,0,.306.409,3.88,3.88,0,1,1-3.306,6.892,3.7,3.7,0,0,1-1.567-3.872,3.589,3.589,0,0,1,2.657-3,.453.453,0,0,0,.382-.528c-.017-1.184-.007-2.368-.007-3.62M3.891,1.543A2.336,2.336,0,0,0,1.54,3.886,2.265,2.265,0,0,0,3.889,6.224,2.231,2.231,0,0,0,6.215,3.872,2.269,2.269,0,0,0,3.891,1.543m4.683,19.55a2.289,2.289,0,0,0,2.35,2.341,2.233,2.233,0,0,0,2.331-2.344,2.269,2.269,0,0,0-2.318-2.337,2.366,2.366,0,0,0-2.363,2.34M18,1.544a2.378,2.378,0,0,0-2.386,2.323,2.348,2.348,0,0,0,2.335,2.366,2.292,2.292,0,0,0,2.358-2.337A2.335,2.335,0,0,0,18,1.544" transform="translate(0 -0.001)"/>
  </g>
</svg>
