<svg id="Group_153" data-name="Group 153" xmlns="http://www.w3.org/2000/svg" xmlns:xlink="http://www.w3.org/1999/xlink" width="24.999" height="25" viewBox="0 0 24.999 25">
  <defs>
    <clipPath id="clip-path">
      <rect id="Rectangle_40" data-name="Rectangle 40" width="24.999" height="25"/>
    </clipPath>
  </defs>
  <g id="Group_18" data-name="Group 18" clip-path="url(#clip-path)">
    <path id="Path_4" data-name="Path 4" d="M12.513,25Q7.392,25,2.271,25A2.14,2.14,0,0,1,0,22.764q0-2.39,0-4.779,0-7.852,0-15.7A2.235,2.235,0,0,1,.5.762,2.189,2.189,0,0,1,2.271,0q7.4.006,14.793,0C18.319,0,18.1-.074,18.98.8c1.841,1.838,3.674,3.686,5.526,5.513a1.586,1.586,0,0,1,.485,1.178q.013,7.67,0,15.34A2.1,2.1,0,0,1,22.755,25q-4.415,0-8.831,0H12.513m-7.3-2.084v-.287c0-2.306,0-4.612,0-6.917a2.072,2.072,0,0,1,2.161-2.163q5.131-.007,10.262,0a2.606,2.606,0,0,1,.628.077,2.12,2.12,0,0,1,1.532,2.115c-.02,2.3-.006,4.6-.006,6.895v.273h3.124a.828.828,0,0,0,.01-.084q0-7.441,0-14.882a.367.367,0,0,0-.1-.231q-2.473-2.483-4.954-4.958c-.039-.039-.086-.07-.163-.131v.285q0,2.628,0,5.256a2.867,2.867,0,0,1-.041.588,2.1,2.1,0,0,1-2.128,1.691q-3.026.007-6.053,0a2.6,2.6,0,0,1-.563-.063,2.126,2.126,0,0,1-1.62-2.14c.019-1.949.005-3.9.005-5.848V2.125H2.122V22.914Zm2.111-.04H17.679V15.647H7.321ZM15.627,2.127H9.411v6.2h6.216Z" transform="translate(0 0)"/>
  </g>
</svg>
