<svg id="Group_159" data-name="Group 159" xmlns="http://www.w3.org/2000/svg" xmlns:xlink="http://www.w3.org/1999/xlink" width="13.828" height="20" viewBox="0 0 13.828 20">
  <defs>
    <clipPath id="clip-path">
      <rect id="Rectangle_107" data-name="Rectangle 107" width="13.828" height="20" fill="#020202"/>
    </clipPath>
  </defs>
  <g id="Group_68" data-name="Group 68" clip-path="url(#clip-path)">
    <path id="Path_28" data-name="Path 28" d="M62.073,267.5a2.561,2.561,0,0,1-1.423-.788,2.311,2.311,0,0,1-.571-1.519c0-.245,0-.49,0-.748h6.1a2.432,2.432,0,0,1-1.786,3.005c-.057.014-.113.033-.169.05Z" transform="translate(-56.228 -247.495)" fill="#020202"/>
    <path id="Path_29" data-name="Path 29" d="M6.914,15.394q-1.5,0-2.993,0a.759.759,0,0,1-.837-.839,4.078,4.078,0,0,0-1.164-2.906A6.892,6.892,0,0,1,2.349,1.7,6.7,6.7,0,0,1,7.982.09a6.62,6.62,0,0,1,4.726,3.042,6.722,6.722,0,0,1,1.039,4.806,6.872,6.872,0,0,1-1.92,3.841,3.89,3.89,0,0,0-1.069,2.738c-.012.606-.286.878-.9.878H6.914M6.677,3.071A3.727,3.727,0,0,0,3.425,5.3a2.186,2.186,0,0,0-.222.826.712.712,0,0,0,.662.692.734.734,0,0,0,.815-.544A2.269,2.269,0,0,1,6.915,4.6a.779.779,0,0,0,.77-.79c-.019-.441-.385-.752-1.009-.736" transform="translate(0 0)" fill="#020202"/>
  </g>
</svg>
