<svg xmlns="http://www.w3.org/2000/svg" width="356.232" height="353.761" viewBox="0 0 356.232 353.761">
  <g id="LOGO_RADICAL" data-name="LOGO RADICAL" transform="translate(-5704.433 -1490.681)">
    <path id="Path_48" data-name="Path 48" d="M283.878,3H3V283.878" transform="translate(5704.433 1490.681)" fill="none" stroke="#040504" stroke-miterlimit="10" stroke-width="6"/>
    <path id="Path_49" data-name="Path 49" d="M27.6,307.81H308.689V26.718" transform="translate(5748.976 1533.632)" fill="none" stroke="#040504" stroke-miterlimit="10" stroke-width="6"/>
    <path id="Path_50" data-name="Path 50" d="M43.382,197.453V52.007h28.73V70.548q8.859-11.49,19.57-16.447T116.5,49.14h2.87v28.2H111.53q-17.5,0-27.156,9.658Q72.1,98.757,72.112,125.65v71.8Z" transform="translate(5777.562 1574.237)" fill="#040504"/>
    <path id="Path_51" data-name="Path 51" d="M83.517,227.64a17.818,17.818,0,0,1-5.481-13.057,16.709,16.709,0,0,1,5.481-12.528,18.281,18.281,0,0,1,13.048-5.225,17.251,17.251,0,0,1,12.41,5.225,16.893,16.893,0,0,1,5.355,12.528A18.254,18.254,0,0,1,109.1,227.64a16.684,16.684,0,0,1-12.537,5.484,17.827,17.827,0,0,1-13.048-5.484m.787-55.875-.275-6q-2.074-35.506-2.083-61.888V31.027h28.73v72.845q0,23.506-1.574,54.835l-.509,13.057Z" transform="translate(5840.317 1541.436)" fill="#040504"/>
  </g>
</svg>
