<svg id="Group_161" data-name="Group 161" xmlns="http://www.w3.org/2000/svg" xmlns:xlink="http://www.w3.org/1999/xlink" width="21.884" height="25" viewBox="0 0 21.884 25">
  <defs>
    <clipPath id="clip-path">
      <rect id="Rectangle_138" data-name="Rectangle 138" width="21.884" height="25"/>
    </clipPath>
  </defs>
  <g id="Group_133" data-name="Group 133" clip-path="url(#clip-path)">
    <path id="Path_31" data-name="Path 31" d="M4.69,11.62a1.153,1.153,0,0,0-.013.129q0,2.515,0,5.03c0,.119,0,.239,0,.358a.218.218,0,0,0,.161.23c.155.047.314.086.466.141a3.932,3.932,0,0,1,1.477,1,3.494,3.494,0,0,1,.755,1.265,3.827,3.827,0,0,1,.23,1.456A3.741,3.741,0,0,1,7.595,22.3a5.339,5.339,0,0,1-.452.957,3.278,3.278,0,0,1-1.121,1.131,3.735,3.735,0,0,1-1.461.545,3.49,3.49,0,0,1-1.54-.051c-.183-.054-.368-.1-.549-.161a3.735,3.735,0,0,1-1.052-.589,2.987,2.987,0,0,1-.7-.756,3.623,3.623,0,0,1-.27-.452c-.1-.218-.183-.445-.266-.671a1.9,1.9,0,0,1-.051-.243c-.02-.091-.047-.18-.064-.272a2.456,2.456,0,0,1-.062-.394,2.279,2.279,0,0,1,.1-.919.674.674,0,0,0,.03-.192,2.289,2.289,0,0,1,.243-.747c.037-.082.079-.162.113-.246a2.758,2.758,0,0,1,.46-.678,2.76,2.76,0,0,1,.825-.692c.265-.147.539-.277.811-.41a.72.72,0,0,1,.187-.05c.348-.063.361-.078.361-.424q0-3.286,0-6.572c0-.862,0-1.724,0-2.585,0-.117-.076-.133-.154-.162-.277-.1-.563-.188-.83-.312A3.515,3.515,0,0,1,.8,6.3a4.117,4.117,0,0,1-.358-.628C.353,5.483.277,5.288.194,5.1a.378.378,0,0,1-.031-.081A4.011,4.011,0,0,1,.037,3.5a5.277,5.277,0,0,1,.4-1.367A3.574,3.574,0,0,1,1.4.9,4.139,4.139,0,0,1,2.644.231,6.357,6.357,0,0,1,3.834.007a.98.98,0,0,1,.324.016,11.066,11.066,0,0,1,1.15.256,2.091,2.091,0,0,1,.817.432A2.945,2.945,0,0,0,6.474.97a2.841,2.841,0,0,1,.57.634,3.564,3.564,0,0,1,.6,1.288,4.143,4.143,0,0,1,.11.9A3.456,3.456,0,0,1,7.426,5.5a5.124,5.124,0,0,1-.53.889,2.293,2.293,0,0,1-.756.672c-.23.118-.441.273-.672.389a3.815,3.815,0,0,1-.567.211c-.168.053-.185.052-.159.23.031.206.081.408.124.612a1.791,1.791,0,0,0,.072.294c.111.278.227.554.352.826a4.725,4.725,0,0,0,.893,1.246,3.943,3.943,0,0,0,1,.8c.337.181.679.354,1.027.513.162.074.345.1.515.159a5.467,5.467,0,0,0,1.834.179c1.14,0,2.281,0,3.421,0,.2,0,.2,0,.258-.2a4.3,4.3,0,0,1,.8-1.572,3.486,3.486,0,0,1,1.178-.919,4.336,4.336,0,0,1,1.29-.389,4.124,4.124,0,0,1,.93-.01,2.845,2.845,0,0,1,.739.158,4.8,4.8,0,0,1,.943.429,3.714,3.714,0,0,1,1.229,1.3c.117.2.185.431.287.642a3.734,3.734,0,0,1,.193.886,1.954,1.954,0,0,1,.045.7,6.69,6.69,0,0,1-.134.735,3.1,3.1,0,0,1-.355.9c-.175.273-.355.543-.552.8a1.931,1.931,0,0,1-.359.328,3.908,3.908,0,0,1-.841.507,4.111,4.111,0,0,1-2.55.237,3.092,3.092,0,0,1-.988-.373,6.182,6.182,0,0,1-.542-.35,2.888,2.888,0,0,1-.395-.383c-.157-.178-.3-.366-.446-.555a1.246,1.246,0,0,1-.136-.256c-.075-.174-.148-.35-.214-.528-.054-.145-.092-.3-.147-.44a.167.167,0,0,0-.1-.081.727.727,0,0,0-.193-.02c-1.127,0-2.253,0-3.38-.007-.216,0-.432-.04-.649-.053-.234-.015-.473,0-.7-.034a9.955,9.955,0,0,1-.983-.217,3.584,3.584,0,0,1-.62-.221c-.413-.2-.828-.392-1.22-.626a6.174,6.174,0,0,1-.865-.642,2.931,2.931,0,0,1-.559-.562.207.207,0,0,0-.1-.06,1.193,1.193,0,0,0-.149-.035M3.878,1.56A2.334,2.334,0,0,0,1.536,4.045,2.4,2.4,0,0,0,3.9,6.294,2.417,2.417,0,0,0,6.279,3.853a2.351,2.351,0,0,0-2.4-2.292M3.871,23.483a2.972,2.972,0,0,0,.894-.17,2.8,2.8,0,0,0,.628-.359,2.208,2.208,0,0,0,.736-1.048,2.046,2.046,0,0,0,.135-.743,2.453,2.453,0,0,0-.491-1.5,1.629,1.629,0,0,0-.648-.558,3.988,3.988,0,0,0-.576-.264,2.252,2.252,0,0,0-1.416.045,2.579,2.579,0,0,0-.942.6,2.4,2.4,0,0,0-.631,1.248,1.851,1.851,0,0,0,.129,1.187,4.75,4.75,0,0,0,.4.693,1.933,1.933,0,0,0,.637.528,3.1,3.1,0,0,0,.636.258,3.3,3.3,0,0,0,.513.076M20.356,13.32c-.031-.228-.05-.418-.084-.606a.972.972,0,0,0-.093-.3c-.125-.225-.263-.444-.4-.662a1.585,1.585,0,0,0-.613-.5,4.786,4.786,0,0,0-.745-.288.945.945,0,0,0-.245-.042,2.475,2.475,0,0,0-1.293.291,2.178,2.178,0,0,0-1.1,1.243,2.147,2.147,0,0,0-.1,1.346,2.355,2.355,0,0,0,1.171,1.551,2.262,2.262,0,0,0,1.507.261,2.535,2.535,0,0,0,.916-.343,1.745,1.745,0,0,0,.576-.531,3.349,3.349,0,0,0,.364-.659,4.787,4.787,0,0,0,.142-.763" transform="translate(-0.001 0)"/>
  </g>
</svg>
