<svg id="Group_162" data-name="Group 162" xmlns="http://www.w3.org/2000/svg" xmlns:xlink="http://www.w3.org/1999/xlink" width="25.066" height="25" viewBox="0 0 25.066 25">
  <defs>
    <clipPath id="clip-path">
      <rect id="Rectangle_140" data-name="Rectangle 140" width="25.066" height="25" fill="none"/>
    </clipPath>
  </defs>
  <g id="Group_137" data-name="Group 137" clip-path="url(#clip-path)">
    <path id="Path_34" data-name="Path 34" d="M6.038,13.394c-1.7,0-3.4-.008-5.107,0A.851.851,0,0,1,0,12.558a.835.835,0,0,1,.77-.98,5.175,5.175,0,0,1,.63-.021l9.8,0c.383,0,.429-.043.43-.439,0-1.023,0-2.046,0-3.069q0-3.4,0-6.808c0-.1,0-.205-.009-.308A.85.85,0,0,1,12.68.011a.9.9,0,0,1,.806.95c.022.3,0,.607,0,.911q0,4.624,0,9.247c0,.509.067.436.44.436l9.676,0c.184,0,.368-.01.551,0a.9.9,0,0,1,.883.729,1.051,1.051,0,0,1-.071.669.758.758,0,0,1-.728.438c-.215,0-.43,0-.645,0H14.2c-.166,0-.331,0-.5.007a.171.171,0,0,0-.192.163c-.01.1-.022.2-.022.306q0,4.918,0,9.837a2.586,2.586,0,0,1-.1.711A.917.917,0,0,1,11.617,24q.014-3.183.017-6.365,0-1.9,0-3.806a1.048,1.048,0,0,0-.048-.3.187.187,0,0,0-.118-.107,1.362,1.362,0,0,0-.306-.029q-2.56,0-5.12,0Z" transform="translate(0 0)" fill="#1a1818"/>
  </g>
</svg>
