<svg id="Group_155" data-name="Group 155" xmlns="http://www.w3.org/2000/svg" xmlns:xlink="http://www.w3.org/1999/xlink" width="25.002" height="25" viewBox="0 0 25.002 25">
  <defs>
    <clipPath id="clip-path">
      <rect id="Rectangle_45" data-name="Rectangle 45" width="25.002" height="25"/>
    </clipPath>
  </defs>
  <g id="Group_22" data-name="Group 22" transform="translate(0 0)" clip-path="url(#clip-path)">
    <path id="Path_7" data-name="Path 7" d="M12.5,57.179c-2.939,0-5.878.015-8.816-.007A3.443,3.443,0,0,1,.446,55.338,3.738,3.738,0,0,1,.03,53.561Q0,48.537,0,43.512a1.218,1.218,0,0,1,1.616-1.271,1.11,1.11,0,0,1,.865.987,4.932,4.932,0,0,1,.024.526c.011,3.232.017,6.464.037,9.7a1.642,1.642,0,0,0,.165.7.986.986,0,0,0,.948.518c.42.008.839.03,1.259.03q7.514,0,15.027,0c.468,0,.937-.012,1.405-.032a1.048,1.048,0,0,0,1.115-1.123q.032-.893.032-1.787,0-4.014,0-8.027a3.936,3.936,0,0,1,.029-.555,1.172,1.172,0,0,1,1.206-.981,1.185,1.185,0,0,1,1.243.973,2.442,2.442,0,0,1,.029.379c-.008,3.33,0,6.66-.033,9.99a3.438,3.438,0,0,1-1.793,3.2,3.852,3.852,0,0,1-1.889.44c-2.929.011-5.858,0-8.787,0" transform="translate(0 -32.184)"/>
    <path id="Path_8" data-name="Path 8" d="M31.236,4.317c-.218.235-.429.476-.654.7Q29.53,6.081,28.468,7.132a1.158,1.158,0,0,1-1.259.325,1.252,1.252,0,0,1-.868-1.016,1.216,1.216,0,0,1,.411-1.1l2.008-2.009Q30.2,1.889,31.64.449A1.207,1.207,0,0,1,33.511.439q2.448,2.44,4.889,4.887a1.2,1.2,0,0,1,.375,1.3,1.248,1.248,0,0,1-1.008.876,1.2,1.2,0,0,1-1.106-.4q-1.274-1.273-2.544-2.55a1.088,1.088,0,0,1-.148-.283l-.134.1v.341q0,5.653,0,11.306a2.724,2.724,0,0,1-.051.64,1.174,1.174,0,0,1-1.324.858,1.132,1.132,0,0,1-1.111-1.04,4.692,4.692,0,0,1-.021-.5q0-5.624,0-11.248V4.379l-.09-.063" transform="translate(-20.081 0)"/>
  </g>
</svg>
