<svg xmlns="http://www.w3.org/2000/svg" width="62.778" height="60.666" viewBox="0 0 62.778 60.666">
  <g id="Group_197" data-name="Group 197" transform="translate(-312.126 -170.75)">
    <g id="Group_196" data-name="Group 196" transform="translate(312.126 170.75)">
      <path id="Path_55" data-name="Path 55" d="M24.453,4.666,7.361,4.334c-.291-.006-.582-.01-.873-.029-1.246-.083-1.567.217-1.5,1.488.146,2.809.311,5.617.464,8.426q.24,4.4.469,8.791a1.044,1.044,0,0,1-.839,1.19c-1.1.276-2.205.57-3.318.806-.948.2-1.408-.23-1.425-1.3C.3,20.94.277,18.175.234,15.409Q.13,8.68.008,1.951c0-.267-.014-.534,0-.8A1.06,1.06,0,0,1,1.207,0Q7.856.29,14.5.6q5.886.267,11.771.533,8.5.38,17.005.758a1.543,1.543,0,0,1,.779.116,1.758,1.758,0,0,1,.729.868c.163.8-1.107,2.18-1.936,2.169C40.235,5.007,37.617,4.951,35,4.9q-5.273-.108-10.546-.224s0-.005,0-.008" transform="translate(0 -0.001)"/>
      <path id="Path_56" data-name="Path 56" d="M57.507,237.02l-19.626-.657q-8.286-.277-16.572-.556a3.906,3.906,0,0,1-1.081-.082,1.193,1.193,0,0,1-.72-.582,1.031,1.031,0,0,1,.227-.9c.775-.695,1.606-1.329,2.446-1.947a1.239,1.239,0,0,1,.752-.178c6.075.342,12.15.7,18.225,1.052q9.33.533,18.662,1.05,7.152.409,14.3.842c1.237.075,1.48-.1,1.5-1.341.053-2.667.072-5.336.109-8,.024-1.7.056-3.394.084-5.091.013-.806.264-1.135.884-1.152,1.041-.029,1.6.392,1.612,1.229q.036,2.255.06,4.51.061,5.6.118,11.2c.01,1.022-.265,1.31-1.286,1.275q-9.849-.33-19.7-.675" transform="translate(-15.712 -177.031)"/>
    </g>
    <text id="rM_" data-name="rM!" transform="translate(325.015 185.75)" font-size="22" font-family="OpenSauceOne-Medium, Open Sauce One" font-weight="500"><tspan x="0" y="22">rM!</tspan></text>
  </g>
</svg>
